<svg version="1.1" xmlns="http://www.w3.org/2000/svg" style="display: block;" viewBox="0 0 2048 2042" width="634" height="632" preserveAspectRatio="none">
<defs>
	<linearGradient id="Gradient1" gradientUnits="userSpaceOnUse" x1="1268.45" y1="538.944" x2="31.1659" y2="472.978">
		<stop class="stop0" offset="0" stop-opacity="1" stop-color="rgb(166,166,166)"/>
		<stop class="stop1" offset="1" stop-opacity="1" stop-color="rgb(205,204,204)"/>
	</linearGradient>
	<linearGradient id="Gradient2" gradientUnits="userSpaceOnUse" x1="918.721" y1="1296.89" x2="17.2679" y2="1290.89">
		<stop class="stop0" offset="0" stop-opacity="1" stop-color="rgb(146,145,145)"/>
		<stop class="stop1" offset="1" stop-opacity="1" stop-color="rgb(206,206,205)"/>
	</linearGradient>
	<linearGradient id="Gradient3" gradientUnits="userSpaceOnUse" x1="2041.99" y1="1177.14" x2="715.922" y2="1176.98">
		<stop class="stop0" offset="0" stop-opacity="1" stop-color="rgb(138,137,137)"/>
		<stop class="stop1" offset="1" stop-opacity="1" stop-color="rgb(185,184,183)"/>
	</linearGradient>
	<linearGradient id="Gradient4" gradientUnits="userSpaceOnUse" x1="475.375" y1="1366.21" x2="1547.1" y2="625.692">
		<stop class="stop0" offset="0" stop-opacity="1" stop-color="rgb(149,7,0)"/>
		<stop class="stop1" offset="1" stop-opacity="1" stop-color="rgb(225,53,52)"/>
	</linearGradient>
</defs>
<path transform="translate(0,0)" fill="url(#Gradient4)" d="M 839.065 314.193 C 856.803 317.884 874.89 322.872 892.267 326.261 C 964.785 339.807 1038.07 348.883 1111.7 353.436 C 1122.48 354.013 1139.25 357.219 1149.06 356.138 C 1234.14 363.658 1320.09 362.672 1404.34 377.062 C 1425.58 380.689 1447.04 383.765 1468.08 388.373 C 1616.42 420.498 1756.57 482.732 1879.88 571.221 C 1911.69 594.421 1945.51 622.708 1972.69 651.392 C 1982.99 662.261 1993.17 697.064 1998.14 712.467 C 2038.81 838.48 2054.04 987.065 2041.57 1119.03 C 2020.63 1336.53 1930.26 1541.52 1783.81 1703.7 C 1753.77 1737.17 1718.37 1772.57 1683.59 1801.3 C 1557.57 1906.6 1408.46 1980.65 1248.41 2017.4 C 1237.67 2019.88 1226.92 2021.43 1216.31 2023.66 C 1171.76 2033.04 1127.43 2037.93 1082 2040.36 C 1077.68 2040.59 1072.15 2041.24 1067.86 2042 L 981.237 2042 C 965.881 2039.15 932.68 2037.58 915.026 2035.41 C 868.027 2029.62 814.756 2022.36 769.435 2008.94 C 764.8 2008.68 738.874 2001.23 733.636 1999.65 C 616.844 1965.57 507.179 1910.65 409.938 1837.53 C 391.424 1823.52 305.517 1752.93 296.347 1735.93 L 297.395 1733.05 C 314.526 1720.27 330.044 1716.14 348.824 1707.47 C 368.338 1698.46 387.724 1689.18 407.277 1680.2 C 467.823 1652.02 527.885 1622.82 587.436 1592.59 C 595.739 1588.43 646.752 1565.73 648.819 1561.35 C 616.627 1540.87 578.638 1508.39 551.869 1481.23 L 534.735 1483.2 C 512.597 1493.63 483.19 1503.93 459.859 1512.62 C 425.186 1525.87 390.214 1538.33 354.971 1549.98 C 321.669 1560.66 206.614 1596.07 179.049 1594.46 C 109.022 1496.52 56.4192 1370.15 29.8011 1253.06 C 24.7991 1231.06 16.7947 1200.1 15.9034 1177.97 C 31.8664 1168.12 64.3826 1155.28 82.5007 1147.36 C 171.757 1108.36 263.275 1081.03 356.75 1054.38 L 366.814 1049.65 C 367.19 1037.95 365.883 1023.96 366.156 1011.26 C 367.098 977.262 370.578 943.383 376.566 909.904 C 379.17 903.251 382.837 884.24 384.432 876.689 C 387.782 860.327 391.654 844.077 396.041 827.963 C 402.263 805.727 409.973 784.058 417.711 762.335 C 420.941 753.267 425.574 742.701 428.334 733.913 L 428.605 733.025 C 553.248 673.971 683.26 626.989 816.86 592.723 C 815.402 589.666 816.485 590.728 813.75 589.198 C 811.215 590.717 804.793 587.375 800.2 589.677 L 798.985 593.766 C 797.452 593.624 796.826 593.775 795.979 592.757 C 789.867 584.868 777.12 592.465 770.415 589.59 C 740.503 576.763 728.033 583.005 716.114 548.794 C 722.659 534.724 724.567 505.201 725.351 489.204 C 725.484 486.504 722.699 474.269 722.762 471.456 C 722.988 461.306 720.968 448.45 721.132 438.916 C 721.378 424.626 722.326 411.082 721.527 396.71 C 720.683 381.547 715.12 350.227 721.877 337.041 C 728.251 324.602 771.027 327.546 784.114 325.233 C 791.867 324.148 799.772 322.501 807.477 321.136 C 815.149 319.777 834.997 321.198 839.065 314.193 z"/>
<path transform="translate(0,0)" fill="url(#Gradient3)" d="M 839.065 314.193 C 856.803 317.884 874.89 322.872 892.267 326.261 C 964.785 339.807 1038.07 348.883 1111.7 353.436 C 1122.48 354.013 1139.25 357.219 1149.06 356.138 C 1234.14 363.658 1320.09 362.672 1404.34 377.062 C 1425.58 380.689 1447.04 383.765 1468.08 388.373 C 1616.42 420.498 1756.57 482.732 1879.88 571.221 C 1911.69 594.421 1945.51 622.708 1972.69 651.392 C 1982.99 662.261 1993.17 697.064 1998.14 712.467 C 2038.81 838.48 2054.04 987.065 2041.57 1119.03 C 2020.63 1336.53 1930.26 1541.52 1783.81 1703.7 C 1753.77 1737.17 1718.37 1772.57 1683.59 1801.3 C 1557.57 1906.6 1408.46 1980.65 1248.41 2017.4 C 1237.67 2019.88 1226.92 2021.43 1216.31 2023.66 C 1171.76 2033.04 1127.43 2037.93 1082 2040.36 C 1077.68 2040.59 1072.15 2041.24 1067.86 2042 L 981.237 2042 C 965.881 2039.15 932.68 2037.58 915.026 2035.41 C 868.027 2029.62 814.756 2022.36 769.435 2008.94 C 764.8 2008.68 738.874 2001.23 733.636 1999.65 C 616.844 1965.57 507.179 1910.65 409.938 1837.53 C 391.424 1823.52 305.517 1752.93 296.347 1735.93 L 297.395 1733.05 C 314.526 1720.27 330.044 1716.14 348.824 1707.47 C 368.338 1698.46 387.724 1689.18 407.277 1680.2 C 467.823 1652.02 527.885 1622.82 587.436 1592.59 C 595.739 1588.43 646.752 1565.73 648.819 1561.35 C 654.167 1562.99 687.807 1585.23 695.965 1589.9 C 727.044 1607.68 756.311 1622.81 789.949 1635.57 C 802.602 1640.37 815.658 1648.03 829.368 1650.93 C 831.265 1651.33 832.381 1651.91 834.066 1652.78 C 847.583 1648.19 862.425 1644.93 876.387 1639.99 C 942.818 1616.5 1013.91 1593.7 1078.7 1565.51 C 1269.9 1482.31 1458.03 1371.94 1608.97 1226.82 C 1629.87 1206.73 1653.02 1182.75 1670.51 1160.23 C 1683.79 1113.83 1683.36 1004.22 1678.37 954.504 C 1667.85 853.821 1634.44 756.879 1580.7 671.095 C 1575.75 663.346 1568.74 654.204 1563.27 646.55 C 1553.26 632.554 1540.99 612.16 1529.69 599.687 C 1514.91 583.371 1505.12 578.403 1492.37 558.225 L 1491.85 557.375 C 1469.46 551.217 1441.99 547.421 1418.83 544.11 C 1222.89 516.105 1007.19 544.641 816.86 592.723 C 815.402 589.666 816.485 590.728 813.75 589.198 C 811.215 590.717 804.793 587.375 800.2 589.677 L 798.985 593.766 C 797.452 593.624 796.826 593.775 795.979 592.757 C 789.867 584.868 777.12 592.465 770.415 589.59 C 740.503 576.763 728.033 583.005 716.114 548.794 C 722.659 534.724 724.567 505.201 725.351 489.204 C 725.484 486.504 722.699 474.269 722.762 471.456 C 722.988 461.306 720.968 448.45 721.132 438.916 C 721.378 424.626 722.326 411.082 721.527 396.71 C 720.683 381.547 715.12 350.227 721.877 337.041 C 728.251 324.602 771.027 327.546 784.114 325.233 C 791.867 324.148 799.772 322.501 807.477 321.136 C 815.149 319.777 834.997 321.198 839.065 314.193 z"/>
<path transform="translate(0,0)" fill="rgb(187,187,186)" d="M 648.819 1561.35 C 654.167 1562.99 687.807 1585.23 695.965 1589.9 C 727.044 1607.68 756.311 1622.81 789.949 1635.57 C 802.602 1640.37 815.658 1648.03 829.368 1650.93 C 831.265 1651.33 832.381 1651.91 834.066 1652.78 C 831.197 1653.91 828.316 1654.95 825.559 1656.32 L 827.407 1656.32 C 831.825 1656.32 832.61 1654.94 837.215 1656.62 C 839.208 1659.47 838.997 1661.04 838.474 1664.62 C 835.93 1682.05 818.991 1677.85 808.254 1681.64 C 785.674 1689.6 729.635 1726.42 727.302 1750.97 L 727.103 1752.96 C 724.722 1778.46 733.071 1817.11 729.627 1844.56 C 728.155 1856.3 734.558 1873.47 728.629 1885.71 C 725.248 1896.59 728.929 1897.87 718.576 1906.98 C 717.567 1907.87 716.582 1934.36 717.936 1937.14 C 730.279 1957.38 777.521 1980.89 778.536 2004.78 L 780.916 2007.57 L 780.53 2009.11 C 776.253 2010.62 776.975 2007.78 769.435 2008.94 C 764.8 2008.68 738.874 2001.23 733.636 1999.65 C 616.844 1965.57 507.179 1910.65 409.938 1837.53 C 391.424 1823.52 305.517 1752.93 296.347 1735.93 L 297.395 1733.05 C 314.526 1720.27 330.044 1716.14 348.824 1707.47 C 368.338 1698.46 387.724 1689.18 407.277 1680.2 C 467.823 1652.02 527.885 1622.82 587.436 1592.59 C 595.739 1588.43 646.752 1565.73 648.819 1561.35 z"/>
<path transform="translate(0,0)" fill="rgb(76,68,67)" d="M 648.819 1561.35 C 654.167 1562.99 687.807 1585.23 695.965 1589.9 C 727.044 1607.68 756.311 1622.81 789.949 1635.57 C 802.602 1640.37 815.658 1648.03 829.368 1650.93 C 831.265 1651.33 832.381 1651.91 834.066 1652.78 C 831.197 1653.91 828.316 1654.95 825.559 1656.32 L 823.626 1656.76 C 810.27 1659.88 796.027 1665.08 782.512 1668.64 C 649.418 1703.77 513.555 1727.08 375.896 1733.07 C 349.885 1734.21 323.467 1732.71 297.395 1733.05 C 314.526 1720.27 330.044 1716.14 348.824 1707.47 C 368.338 1698.46 387.724 1689.18 407.277 1680.2 C 467.823 1652.02 527.885 1622.82 587.436 1592.59 C 595.739 1588.43 646.752 1565.73 648.819 1561.35 z"/>
<path transform="translate(0,0)" fill="rgb(76,68,67)" d="M 1491.85 557.375 C 1602.7 585.038 1709.92 626.326 1771.9 729.372 C 1807.68 788.866 1814.92 863.407 1798.46 929.973 C 1779.78 1008.37 1726.3 1102.87 1670.51 1160.23 C 1683.79 1113.83 1683.36 1004.22 1678.37 954.504 C 1667.85 853.821 1634.44 756.879 1580.7 671.095 C 1575.75 663.346 1568.74 654.204 1563.27 646.55 C 1553.26 632.554 1540.99 612.16 1529.69 599.687 C 1514.91 583.371 1505.12 578.403 1492.37 558.225 L 1491.85 557.375 z"/>
<path transform="translate(0,0)" fill="url(#Gradient2)" d="M 356.75 1054.38 C 362.579 1053.35 380.258 1047.96 387.888 1046.13 C 415.075 1039.85 442.306 1033.76 469.579 1027.87 C 508.974 1019.67 539.139 1015.24 578.528 1009.72 C 686.459 994.603 794.073 984.341 901.321 1009.74 L 898.267 1011.28 L 897.853 1012.77 L 899.126 1014.93 C 896.55 1018.86 891.083 1018.67 889.945 1020.04 C 882.345 1029.18 876.294 1040.9 872.095 1051.97 C 866.641 1066.35 869.779 1081.56 870.784 1096.73 L 874.686 1156.16 C 876.179 1176.9 876.834 1198.95 879.621 1219.7 C 882.411 1240.47 900.548 1240.62 916.729 1246.51 C 917.99 1246.97 918.808 1252.23 919.041 1253.5 L 920.792 1254.8 C 924.875 1250.4 929.751 1244.84 934.166 1241 L 935.172 1241.32 L 935.391 1242.63 C 922.393 1258.55 893.005 1281.04 876.563 1293.86 C 791.874 1359.85 693.844 1412.29 596.586 1457.32 C 576.688 1466.53 555.045 1473.97 534.735 1483.2 C 512.597 1493.63 483.19 1503.93 459.859 1512.62 C 425.186 1525.87 390.214 1538.33 354.971 1549.98 C 321.669 1560.66 206.614 1596.07 179.049 1594.46 C 109.022 1496.52 56.4192 1370.15 29.8011 1253.06 C 24.7991 1231.06 16.7947 1200.1 15.9034 1177.97 C 31.8664 1168.12 64.3826 1155.28 82.5007 1147.36 C 171.757 1108.36 263.275 1081.03 356.75 1054.38 z"/>
<path transform="translate(0,0)" fill="rgb(144,143,142)" d="M 901.321 1009.74 C 964.757 1026.93 1027.21 1061.92 1006.98 1137.03 C 997.491 1172.24 963.988 1219.63 935.391 1242.63 L 935.172 1241.32 L 934.166 1241 C 929.751 1244.84 924.875 1250.4 920.792 1254.8 L 919.041 1253.5 C 918.808 1252.23 917.99 1246.97 916.729 1246.51 C 900.548 1240.62 882.411 1240.47 879.621 1219.7 C 876.834 1198.95 876.179 1176.9 874.686 1156.16 L 870.784 1096.73 C 869.779 1081.56 866.641 1066.35 872.095 1051.97 C 876.294 1040.9 882.345 1029.18 889.945 1020.04 C 891.083 1018.67 896.55 1018.86 899.126 1014.93 L 897.853 1012.77 L 898.267 1011.28 L 901.321 1009.74 z"/>
<path transform="translate(0,0)" fill="rgb(250,97,97)" d="M 1252.63 619.507 C 1256.71 618.641 1259.44 618.95 1263.93 618.641 C 1368.92 611.424 1465.07 702.971 1491.47 799.406 C 1492.63 811.191 1492.68 823.147 1493.02 834.992 C 1493.83 863.878 1483.28 888.727 1468.87 913.455 C 1450.56 944.884 1414.87 963.531 1378.5 963.49 C 1310.09 964.045 1244.24 938.775 1199.98 885.741 C 1186.32 869.372 1173.94 858.772 1165.04 837.627 C 1139.35 776.576 1127.28 697.115 1181.48 647.23 C 1198.34 631.706 1229.61 618.776 1252.63 619.507 z"/>
<path transform="translate(0,0)" fill="rgb(254,138,139)" d="M 1289 682.508 C 1337.86 681.554 1382.96 713.479 1408.4 753.306 C 1424.19 778.028 1434.83 808.333 1427.86 837.74 C 1423.25 857.598 1410.89 874.787 1393.53 885.473 C 1383.69 891.537 1356.83 902.036 1346.38 899.588 C 1327.39 901.561 1282.79 885.152 1268.19 873.212 C 1238.21 847.849 1212.17 812.882 1207.01 772.968 C 1204.87 756.387 1207.11 738.236 1216.17 723.782 C 1224.4 710.655 1230.44 703.079 1244 695.222 C 1260.46 685.675 1269.64 682.207 1289 682.508 z"/>
<path transform="translate(0,0)" fill="rgb(254,181,181)" d="M 1284.75 698.497 C 1288.59 698.44 1292.43 698.428 1296.28 698.459 C 1330.32 698.827 1352.53 712.349 1376.17 735.388 C 1409.52 767.895 1429.38 826.389 1392.13 863.32 C 1383.93 871.448 1363.45 881.39 1351.96 881.172 C 1295.65 890.325 1238.29 840.686 1228.04 786.975 C 1218.55 737.232 1234.27 708.214 1284.75 698.497 z"/>
<path transform="translate(0,0)" fill="url(#Gradient1)" d="M 1002.26 0 L 1064.74 0 C 1078.08 2.58652 1096.16 4.04832 1109.96 4.76239 C 1174.83 8.12004 1234.43 22.0549 1297.15 37.8534 L 1313.25 42.1558 L 1324.78 45.4288 C 1240.88 130.109 1176.51 240.443 1126.94 348.937 C 1126.51 349.888 1125.82 352.241 1125.49 353.248 C 1133.66 353.903 1141.03 354.296 1149.06 356.138 C 1139.25 357.219 1122.48 354.013 1111.7 353.436 C 1038.07 348.883 964.785 339.807 892.267 326.261 C 874.89 322.872 856.803 317.884 839.065 314.193 C 834.997 321.198 815.149 319.777 807.477 321.136 C 799.772 322.501 791.867 324.148 784.114 325.233 C 771.027 327.546 728.251 324.602 721.877 337.041 C 715.12 350.227 720.683 381.547 721.527 396.71 C 722.326 411.082 721.378 424.626 721.132 438.916 C 720.968 448.45 722.988 461.306 722.762 471.456 C 722.699 474.269 725.484 486.504 725.351 489.204 C 724.567 505.201 722.659 534.724 716.114 548.794 C 728.033 583.005 740.503 576.763 770.415 589.59 C 777.12 592.465 789.867 584.868 795.979 592.757 C 796.826 593.775 797.452 593.624 798.985 593.766 L 800.2 589.677 C 804.793 587.375 811.215 590.717 813.75 589.198 C 816.485 590.728 815.402 589.666 816.86 592.723 C 683.26 626.989 553.248 673.971 428.605 733.025 L 428.334 733.913 C 425.574 742.701 420.941 753.267 417.711 762.335 C 409.973 784.058 402.263 805.727 396.041 827.963 C 391.654 844.077 387.782 860.327 384.432 876.689 C 382.837 884.24 379.17 903.251 376.566 909.904 C 371.932 908.118 341.003 917.192 335.118 918.798 C 252.002 941.477 168.576 962.595 85.1109 983.876 L 32.3669 997.379 C 23.1882 999.635 16.0761 1003.18 6.7023 1001.09 C -3.19118 990.255 8.4536 905.779 10.7521 887.884 C 33.7143 709.108 101.261 551.498 208.164 406.785 C 336.89 236.092 515.924 110.085 720.045 46.5141 C 787.107 25.5865 863.248 11.1653 933.174 4.81806 C 956.429 2.70715 978.663 3.53908 1002.26 0 z"/>
<path transform="translate(0,0)" fill="rgb(76,68,67)" d="M 1297.15 37.8534 L 1313.25 42.1558 L 1324.78 45.4288 C 1240.88 130.109 1176.51 240.443 1126.94 348.937 C 1126.51 349.888 1125.82 352.241 1125.49 353.248 C 1133.66 353.903 1141.03 354.296 1149.06 356.138 C 1139.25 357.219 1122.48 354.013 1111.7 353.436 C 1038.07 348.883 964.785 339.807 892.267 326.261 C 874.89 322.872 856.803 317.884 839.065 314.193 C 618.622 257.235 785.975 164.707 895.217 123.914 C 919.345 114.904 943.928 104.339 968.932 97.519 C 1073.3 69.0503 1181.67 54.3963 1289.37 45.9407 C 1295.96 44.1157 1295.12 44.033 1297.15 37.8534 z"/>
<path transform="translate(0,0)" fill="rgb(144,143,142)" d="M 1297.15 37.8534 L 1313.25 42.1558 L 1313.7 44.5438 C 1310.13 46.5669 1294.38 45.8055 1289.37 45.9407 C 1295.96 44.1157 1295.12 44.033 1297.15 37.8534 z"/>
<path transform="translate(0,0)" fill="rgb(76,68,67)" d="M 6.7023 1001.09 C 14.0922 997.917 46.1929 967.301 56.2237 959.229 C 76.6942 942.891 97.6702 927.196 119.121 912.167 C 185.825 865.41 258.161 818.758 330.201 780.566 C 362.543 763.784 395.357 747.931 428.605 733.025 L 428.334 733.913 C 425.574 742.701 420.941 753.267 417.711 762.335 C 409.973 784.058 402.263 805.727 396.041 827.963 C 391.654 844.077 387.782 860.327 384.432 876.689 C 382.837 884.24 379.17 903.251 376.566 909.904 C 371.932 908.118 341.003 917.192 335.118 918.798 C 252.002 941.477 168.576 962.595 85.1109 983.876 L 32.3669 997.379 C 23.1882 999.635 16.0761 1003.18 6.7023 1001.09 z"/>
</svg>